# xmcd CD database file
#
# Track frame offsets:
#	150
#	40561
#	75975
#	96279
#	119956
#	131197
#	155372
#	170708
#	185823
#	198101
#	219525
#	249504
#	285111
#
# Disc length: 4064 seconds
#
# Revision: 0
# Processed by: cddbd v1.5.2PL0 Copyright (c) Steve Scherf et al.
# Submitted via: CDex 1.70beta2
#
DISCID=b50fde0d
DTITLE=Various Artist - Les Trésors Du Jazz 1954 (2)
DYEAR=2006
DGENRE=Jazz
TTITLE0=Henri Renaud All Stars, I'll Remember April
TTITLE1=Henri Renaud All Stars, Jay Jay's Blue
TTITLE2=Oscar Pettiford, Rhumblues
TTITLE3=Al Haig, Autumn In New York
TTITLE4=Lill-Arne Soederberg, Duella
TTITLE5=Nick Travis, Cohn Bone
TTITLE6=Bud Shank, Lotus Bud
TTITLE7=Charlie Parker, My Heart Belongs To Daddy
TTITLE8=Charlie Parker, Just One Of Those Things
TTITLE9=Max Roach And Clifford Brown, Tenderly
TTITLE10=Max Roach And Clifford Brown, Sunset Eyes
TTITLE11=Miles Davis, I'll Remember April
TTITLE12=Miles Davis, You Don't Know What Love Is
EXTD=YEAR: 2006
EXTT0=
EXTT1=
EXTT2=
EXTT3=
EXTT4=
EXTT5=
EXTT6=
EXTT7=
EXTT8=
EXTT9=
EXTT10=
EXTT11=
EXTT12=
PLAYORDER=
